<?xml version="1.0" encoding="UTF-8" standalone="no"?>
<svg
   version="1.0"
   width="23.630407pt"
   height="23.239471pt"
   viewBox="0 0 23.630407 23.239471"
   preserveAspectRatio="xMidYMid"
   id="svg49"
   sodipodi:docname="light-sidebar-brand.svg"
   inkscape:version="1.3 (0e150ed6c4, 2023-07-21)"
   xmlns:inkscape="http://www.inkscape.org/namespaces/inkscape"
   xmlns:sodipodi="http://sodipodi.sourceforge.net/DTD/sodipodi-0.dtd"
   xmlns="http://www.w3.org/2000/svg"
   xmlns:svg="http://www.w3.org/2000/svg">
  <defs
     id="defs49" />
  <sodipodi:namedview
     id="namedview49"
     pagecolor="#ffffff"
     bordercolor="#000000"
     borderopacity="0.25"
     inkscape:showpageshadow="2"
     inkscape:pageopacity="0.0"
     inkscape:pagecheckerboard="0"
     inkscape:deskcolor="#d1d1d1"
     inkscape:document-units="pt"
     inkscape:zoom="16.951456"
     inkscape:cx="26.04496"
     inkscape:cy="6.0171822"
     inkscape:window-width="2560"
     inkscape:window-height="1368"
     inkscape:window-x="0"
     inkscape:window-y="0"
     inkscape:window-maximized="1"
     inkscape:current-layer="g51" />
  <g
     transform="matrix(0.00312156,0,0,-0.00312156,28.917132,32.435309)"
     fill="#000000"
     stroke="none"
     id="g49"
     inkscape:export-filename="g49.svg"
     inkscape:export-xdpi="96"
     inkscape:export-ydpi="96">
    <g
       id="g50">
      <g
         id="g51"
         transform="matrix(1.158793,0,0,1.158793,1471.007,-1649.976)"
         inkscape:export-filename="./light-navbar-brand.svg"
         inkscape:export-xdpi="96"
         inkscape:export-ydpi="96"
         style="fill:#000000;fill-opacity:1">
        <path
           d="m -4541.6793,10388.174 c -36,-14 -60,-47 -60,-84 0,-21 3,-45 6,-54 8,-19 55,-45 82,-45 26,0 71,37 83,67 10,26 -7,79 -32,100 -18,15 -60,23 -79,16 z"
           id="path1"
           style="fill:#ffffff;fill-opacity:1" />
        <path
           d="m -3798.6793,10251.174 c -44,-20 -66,-59 -66,-113 0,-40 4,-50 36,-80 51,-46 111,-47 161,-2 43,37 54,81 33,132 -27,62 -101,91 -164,63 z"
           id="path2"
           style="fill:#ffffff;fill-opacity:1" />
        <path
           d="m -3128.6793,10186.174 c -50,-23 -75,-65 -75,-129 0,-51 20,-83.9995 73,-119.9995 90,-62 221,27 206,139.9995 -14,102 -109,153 -204,109 z"
           id="path3"
           style="fill:#ffffff;fill-opacity:1" />
        <path
           d="m -5246.6793,10080.174 c -108,-38 -166,-190.9995 -108,-283.9995 23,-36 9,-28 -183,101 -93,63 -190,122.9995 -217,132.9995 -58,22 -100,13 -131,-28 -30,-39.9995 -28,-158.9995 3,-238.9995 49,-125 178,-219 313,-226 37,-3 68,-8 68,-12 0,-4 -9,-15 -21,-26 -35,-32 -61,-95 -66,-159 -5,-64 8,-115 29,-115 7,0 51,27 97,60 105,76 127,82 157,46 13,-14 21,-33 18,-41 -3,-8 -36,-36 -73,-61 -98,-70 -111,-83 -111,-119 0,-40 41,-123 79,-159 l 29,-28 54,34 c 29,19 70,53 91,76 35,40 37,46 37,107 0,36 4,65 8,65 4,0 26,-18 47,-40 21,-22 45,-40 52,-40 19,0 60,68 75,122 12,46 7,89 -17,164 -6,21 -6,21 67,-4 173,-58 340,14 424,183 41,83 42,131 4,169 -18,18 -32,21 -108,19 -48,-1 -148,-11 -222,-23 -74,-12 -153,-24 -175,-27 l -39,-6 41,39 c 98,93 69,243.9995 -58,307.9995 -59,29 -104,32 -164,11 z"
           id="path4"
           style="fill:#ffffff;fill-opacity:1" />
        <path
           d="m -6319.6793,10065.174 c -100,-61 -94,-201.9995 11,-253.9995 47,-23 94,-16 137,21 44,36 63,79 57,124 -13,100.9995 -123,158.9995 -205,108.9995 z"
           id="path5"
           style="fill:#ffffff;fill-opacity:1" />
        <path
           d="m -4250.6793,9820.1745 c -39,-33 -55,-83 -55,-170 0,-81 23,-143 79,-211 41,-50 160,-114 211,-114 43,0 50,-14 19,-34 -39,-26 -82,-91 -95,-146 -13,-55 -6,-120 13,-120 7,0 60,23 119,51 61,30 113,49 122,46 9,-4 21,-18 28,-32 14,-32 -6,-57 -77,-92 -93,-47 -115,-69 -115,-116 0,-42 47,-158 70,-172 17,-10 130,48 167,87 23,23 36,50 45,93 l 13,59 38,-52 c 20,-29 41,-52 46,-52 16,0 73,73 94,119 16,37 18,57 13,114 l -6,70 26,-18 c 89,-58 96,-60 194,-60 81,0 103,4 145,25 126,61 217,198 181,269 -27,52 -75,62 -313,68 l -212,6 43,38 c 54,48 70,85 64,150 -14,138 -171,226 -293,163 -78,-40 -124,-146 -97,-223 6,-17 8,-31 5,-31 -3,0 -39,30 -80,68 -276,251 -321,276 -392,217 z"
           id="path6"
           style="fill:#ffffff;fill-opacity:1" />
        <path
           d="m -6621.6793,9523.1745 c -76,-39 -111,-132 -76,-200 19,-36 6,-36 -54,-3 -131,72 -239,124 -271,130 -78,15 -117,-67 -85,-178 35,-120 141,-203 257,-200 61,1 70,-5 43,-28 -44,-36 -65,-138 -40,-188 l 17,-32 42,34 c 23,19 63,48 89,65 45,31 47,31 68,14 33,-26 20,-52 -56,-114 -61,-49 -65,-55 -61,-85 6,-36 61,-121 84,-130 20,-8 56,13 108,64 40,40 44,49 47,100 l 3,57 37,-33 c 21,-18 43,-29 49,-26 20,13 49,89 49,133 0,23 -7,59 -15,78 -14,34 -14,36 3,29 34,-15 169,-18 207,-5 84,28 175,148 175,231 0,56 -35,82 -106,80 -47,-1 -259,-38 -329,-58 -17,-5 -16,-1 7,24 57,60 57,137 1,204 -51,61 -120,74 -193,37 z"
           id="path7"
           style="fill:#ffffff;fill-opacity:1" />
        <path
           d="m -4689.6793,9145.1745 c -64,-60 -24,-154 66,-154 73,0 110,97 57,149 -31,32 -91,34 -123,5 z"
           id="path8"
           style="fill:#ffffff;fill-opacity:1" />
        <path
           d="m -7710.6793,9119.1745 c -18,-22 -21,-41 -21,-113 v -87 l -74,15 c -68,14 -76,14 -100,-2 -33,-22 -33,-47 -1,-86 32,-37 84,-55 139,-48 l 41,6 v -52 c 0,-38 6,-61 23,-84 28,-40 41,-41 75,-7 21,21 27,37 29,82 l 3,56 62,2 c 71,2 105,19 128,64 32,62 -21,91 -130,71 -32,-6 -59,-11 -59,-11 -1,0 0,37 2,83 3,72 1,86 -18,110 -29,36 -71,36 -99,1 z"
           id="path9"
           style="fill:#ffffff;fill-opacity:1" />
        <path
           d="m -2938.6793,9025.1745 c -63,-38 -84,-107 -54,-175 44,-101 160,-113 235,-25 29,35 36,105 13,150 -32,64 -130,89 -194,50 z"
           id="path10"
           style="fill:#ffffff;fill-opacity:1" />
        <path
           d="m -5726.6793,8950.1745 c -19,-18 -25,-35 -25,-69 v -46 l -52,34 c -68,43 -153,86 -171,86 -46,0 -63,-98 -28,-156 24,-40 80,-74 131,-81 l 39,-6 -19,-25 c -20,-25 -28,-102 -11,-102 4,0 19,8 32,19 13,10 39,26 57,35 30,16 33,16 39,0 4,-12 -4,-26 -27,-46 -19,-15 -37,-28 -41,-28 -36,0 4,-113 44,-126 23,-7 97,60 97,88 0,21 4,22 30,6 29,-19 45,3 45,63 v 49 l 29,-6 c 94,-20 177,11 209,79 21,44 21,61 0,82 -14,14 -32,16 -137,9 -112,-6 -119,-6 -104,10 25,25 31,53 18,91 -15,44 -44,65 -93,65 -27,0 -45,-7 -62,-25 z"
           id="path11"
           style="fill:#ffffff;fill-opacity:1" />
        <path
           d="m -5049.6793,8815.1745 c -37,-15 -54,-72 -50,-166 3,-73 6,-87 34,-126 38,-52 111,-104 167,-119 23,-6 48,-13 55,-15 8,-2 -1,-16 -23,-35 -20,-18 -43,-45 -51,-60 -19,-38 -19,-118 1,-125 8,-3 51,10 96,29 86,37 104,38 115,4 5,-16 -14,-39 -107,-126 -63,-58 -258,-246 -434,-416 -176,-171 -417,-403 -535,-515 -118,-113 -257,-246 -307,-296 -93,-91 -93,-91 -93,-141 0,-120 120,-189 232,-132 42,21 135,104 443,394 345,324 781,728 928,858 42,38 77,73 77,79 0,20 -79,90 -95,84 -12,-4 -15,4 -15,44 0,59 9,62 64,20 22,-17 43,-30 48,-30 13,0 58,98 58,127 0,16 -4,43 -9,61 -6,18 -7,32 -3,30 103,-54 124,-60 196,-56 89,4 151,38 208,113 64,84 64,150 1,180 -33,16 -57,17 -212,12 l -175,-7 32,30 c 65,59 74,137 23,208 -25,36 -95,72 -139,72 -96,0 -167,-75 -160,-170 1,-28 1,-50 -1,-50 -2,0 -34,26 -70,58 -150,131 -233,192 -260,191 -9,0 -26,-4 -39,-9 z"
           id="path12"
           style="fill:#ffffff;fill-opacity:1" />
        <path
           d="m -7186.6793,8771.1745 c -126,-57 -93,-236 45,-236 36,0 48,6 81,39 34,34 39,44 39,85 0,87 -88,147 -165,112 z"
           id="path13"
           style="fill:#ffffff;fill-opacity:1" />
        <path
           d="m -3488.6793,8684.1745 c -38,-11 -89,-69 -97,-110 -3,-17 1,-49 9,-71 8,-23 13,-43 11,-45 -1,-1 -36,14 -77,33 -145,71 -242,92 -268,60 -35,-42 -20,-139 32,-208 44,-58 105,-88 180,-88 32,0 57,-3 55,-7 -32,-63 -40,-92 -36,-141 7,-84 18,-85 97,-9 38,37 74,67 79,67 12,0 42,-28 42,-38 0,-4 -28,-34 -61,-68 -70,-71 -71,-83 -19,-147 50,-59 61,-62 109,-21 49,42 71,81 71,124 v 31 l 29,-16 c 28,-14 31,-14 50,11 25,32 28,108 6,161 -8,19 -15,36 -15,37 0,1 29,0 64,-2 79,-5 127,10 178,56 47,43 76,96 84,156 5,36 3,47 -15,65 -11,11 -30,21 -42,21 -26,0 -117,-23 -222,-56 -97,-30 -101,-30 -81,2 24,36 22,108 -2,141 -44,59 -100,81 -161,62 z"
           id="path14"
           style="fill:#ffffff;fill-opacity:1" />
        <path
           d="m -6340.6793,8517.1745 c -59,-32 -90,-127 -61,-183 15,-27 4,-24 -72,16 -76,41 -170,75 -205,75 -35,0 -73,-42 -73,-82 0,-63 21,-112 69,-159 38,-38 56,-49 103,-59 32,-6 67,-9 78,-5 26,8 25,0 -2,-38 -18,-24 -23,-46 -23,-89 0,-82 13,-90 72,-41 26,22 61,48 76,58 28,18 29,18 49,-3 l 21,-21 -62,-58 c -75,-72 -77,-91 -20,-157 22,-25 46,-46 53,-46 18,0 93,81 105,113 6,16 11,39 11,53 0,29 7,30 36,3 l 22,-20 21,22 c 36,39 38,98 5,184 -4,10 9,12 58,8 79,-7 152,21 199,75 56,64 76,145 45,188 -19,26 -82,23 -211,-12 -55,-14 -111,-29 -124,-32 l -24,-5 21,21 c 50,50 32,144 -37,189 -41,28 -85,29 -130,5 z"
           id="path15"
           style="fill:#ffffff;fill-opacity:1" />
        <path
           d="m -7746.6793,8491.1745 c -16,-8 -43,-28 -59,-45 -24,-25 -31,-42 -34,-90 -3,-42 1,-69 12,-92 9,-18 16,-34 16,-36 0,-3 -48,21 -107,52 -132,71 -221,105 -273,105 -92,0 -116,-97 -56,-225 53,-116 115,-156 249,-163 82,-4 102,-12 76,-28 -21,-13 -49,-89 -49,-135 0,-50 17,-109 31,-109 5,0 46,32 90,70 45,39 89,70 99,70 18,0 50,-30 50,-46 0,-5 -31,-41 -70,-79 -81,-80 -85,-98 -41,-166 32,-50 76,-99 88,-99 13,0 119,111 133,139 8,15 10,42 5,77 -4,32 -3,54 3,54 5,0 26,-14 47,-30 36,-28 39,-29 56,-14 38,35 49,130 23,199 -30,78 -30,77 2,64 51,-20 154,-15 205,10 89,43 159,141 167,236 11,129 -49,139 -320,54 -69,-21 -129,-39 -134,-39 -4,0 1,8 10,19 43,47 40,137 -5,195 -46,58 -145,82 -214,52 z"
           id="path16"
           style="fill:#ffffff;fill-opacity:1" />
        <path
           d="m -5326.6793,8336.1745 c -16,-10 -129,-114 -251,-232 -121,-118 -348,-335 -505,-484 -334,-317 -704,-671 -950,-911 -206,-200 -244,-224 -353,-224 -88,0 -139,22 -187,79 -66,76 -78,183 -32,270 28,52 135,157 669,659 127,119 241,232 255,251 32,45 32,122 1,173 -40,64 -150,98 -209,65 -12,-7 -227,-212 -478,-456 -251,-245 -470,-455 -487,-467 -95,-71 -248,-7 -248,103 0,50 15,77 73,136 42,42 56,64 62,95 13,79 -29,161 -99,193 -47,21 -101,24 -133,6 -11,-7 -181,-167 -377,-357 -290,-280 -358,-352 -366,-381 -57,-210 -64,-679 -15,-958 29,-163 90,-363 158,-510 l 34,-75 104,103 c 147,146 199,165 290,106 43,-28 69,-78 69,-135 0,-78 -57,-144 -135,-156 -25,-3 -63,-19 -86,-36 -41,-30 -99,-110 -99,-138 0,-16 125,-164 198,-234 l 41,-39 223,216 c 566,548 535,516 549,578 10,49 9,67 -6,128 -22,91 -17,155 18,206 14,21 145,151 291,290 146,139 275,264 286,278 44,56 115,96 214,122 158,41 126,17 526,395 96,91 283,269 415,395 132,127 354,337 492,469 302,286 310,298 257,404 -19,38 -37,58 -65,72 -48,25 -105,25 -144,1 z m -2519,-1826 c 145,-85 88,-315 -78,-315 -67,0 -112,21 -143,68 -47,72 -43,147 13,214 52,62 136,75 208,33 z m -496,-554 c 5,-11 10,-23 10,-27 0,-4 -30,-36 -66,-71 -53,-51 -72,-63 -93,-61 -21,2 -27,9 -29,34 -3,28 5,39 60,88 66,59 100,69 118,37 z m 326,1 c 6,-4 16,-17 23,-30 25,-48 -48,-99 -87,-60 -38,38 20,120 64,90 z"
           id="path17"
           style="fill:#ffffff;fill-opacity:1" />
        <path
           d="m -2978.6793,8145.1745 c -88,-54 -83,-194 9,-250 67,-41 152,-16 195,57 41,71 21,150 -50,193 -42,26 -112,26 -154,0 z"
           id="path18"
           style="fill:#ffffff;fill-opacity:1" />
        <path
           d="m -8860.6793,8058.1745 c -57,-30 -88,-113 -60,-165 6,-11 9,-22 7,-24 -3,-2 -55,19 -117,46 -181,81 -233,76 -233,-22 1,-116 83,-201 209,-214 l 61,-7 -19,-41 c -21,-46 -24,-92 -9,-130 9,-25 40,-37 40,-16 0,17 120,110 135,104 29,-11 16,-49 -35,-99 -31,-31 -50,-58 -50,-72 0,-26 36,-88 68,-117 21,-18 22,-18 50,5 56,47 82,89 82,136 0,23 3,43 6,43 3,0 20,-10 36,-22 30,-21 31,-21 44,-3 29,40 29,108 -1,179 -7,16 -5,17 16,11 34,-11 102,-9 143,5 93,30 172,194 118,243 -27,24 -81,21 -211,-13 -62,-17 -115,-30 -117,-30 -2,0 5,15 16,33 25,41 25,73 0,114 -39,65 -117,89 -179,56 z"
           id="path19"
           style="fill:#ffffff;fill-opacity:1" />
        <path
           d="m -4049.6793,8020.1745 c -56,-47 -51,-117 10,-155 43,-27 84,-20 121,20 42,47 31,117 -24,146 -41,21 -74,17 -107,-11 z"
           id="path20"
           style="fill:#ffffff;fill-opacity:1" />
        <path
           d="m -4323.6793,7727.1745 c -41,-25 -63,-77 -50,-119 10,-32 9,-33 -11,-27 -12,4 -52,22 -89,41 -87,44 -132,52 -158,28 -40,-37 -13,-151 44,-189 14,-9 49,-22 78,-28 29,-6 54,-12 56,-13 1,-1 -4,-15 -13,-31 -17,-33 -19,-72 -6,-93 8,-12 21,-6 67,32 44,37 60,45 70,36 22,-18 17,-32 -31,-79 -34,-33 -44,-49 -39,-65 10,-33 56,-95 71,-95 26,0 96,74 96,103 0,29 15,35 36,15 10,-11 16,-8 33,12 15,19 19,36 16,76 l -3,53 h 63 c 73,0 110,17 154,72 34,42 48,110 28,134 -17,20 -56,19 -169,-5 -121,-26 -129,-26 -107,-1 20,22 24,78 7,110 -14,25 -61,51 -93,51 -13,0 -35,-8 -50,-18 z"
           id="path21"
           style="fill:#ffffff;fill-opacity:1" />
        <path
           d="m -3349.6793,7695.1745 c -46,-28 -72,-76 -72,-133 0,-27 5,-57 10,-68 6,-10 8,-19 5,-19 -3,0 -63,29 -133,64 -70,35 -144,66 -165,70 -33,6 -41,3 -67,-23 -24,-24 -30,-38 -30,-74 0,-93 46,-171 128,-219 38,-22 59,-28 110,-28 h 62 l -26,-40 c -35,-52 -43,-124 -19,-169 19,-38 7,-43 112,52 54,49 71,55 91,35 26,-26 12,-56 -50,-111 l -62,-56 12,-39 c 7,-22 29,-59 51,-83 l 38,-44 47,39 c 62,50 78,77 84,136 l 5,50 29,-25 c 16,-14 33,-25 38,-25 5,0 18,15 29,34 24,38 29,128 9,171 -6,14 -9,27 -7,29 2,3 25,0 51,-5 34,-8 64,-7 104,1 48,10 66,20 109,64 100,101 101,236 1,236 -18,0 -94,-16 -169,-35 -74,-19 -138,-35 -141,-35 -3,0 7,22 21,50 19,36 24,58 19,82 -15,79 -79,138 -151,138 -22,0 -54,-9 -73,-20 z"
           id="path22"
           style="fill:#ffffff;fill-opacity:1" />
        <path
           d="m -6602.6793,7616.1745 c -80,-81 27,-210 120,-145 13,9 29,31 37,49 39,95 -83,170 -157,96 z"
           id="path23"
           style="fill:#ffffff;fill-opacity:1" />
        <path
           d="m -6857.6793,7367.1745 c -65,-52 -57,-142 15,-172 72,-29 141,19 141,98 0,33 -6,45 -31,66 -36,31 -93,34 -125,8 z"
           id="path24"
           style="fill:#ffffff;fill-opacity:1" />
        <path
           d="m -7043.6793,7189.1745 c -34,-18 -58,-62 -58,-107 0,-74 76,-117 147,-83 47,23 80,94 62,137 -25,63 -92,86 -151,53 z"
           id="path25"
           style="fill:#ffffff;fill-opacity:1" />
        <path
           d="m -4815.6793,7102.1745 c -58,-33 -79,-67 -84,-135 -2,-34 1,-68 7,-81 7,-11 9,-21 7,-21 -3,0 -70,42 -148,94 -192,126 -227,136 -279,80 -21,-22 -24,-35 -24,-97 1,-159 110,-282 260,-295 36,-2 65,-7 65,-9 0,-2 -14,-25 -32,-51 -37,-54 -50,-141 -27,-185 l 14,-26 80,55 c 113,78 109,77 139,53 34,-27 26,-42 -63,-114 -38,-31 -72,-63 -75,-71 -15,-39 64,-184 100,-184 20,0 107,63 134,97 11,14 23,47 26,74 4,27 9,49 11,49 3,0 21,-14 40,-31 40,-34 49,-34 77,4 24,33 34,149 17,198 -6,18 -10,34 -8,35 2,2 25,-4 52,-12 108,-34 225,0 295,83 75,91 94,181 50,229 -24,26 -27,26 -110,20 -47,-3 -123,-13 -170,-22 -47,-8 -103,-18 -125,-21 l -40,-6 31,36 c 123,139 -58,347 -220,254 z"
           id="path26"
           style="fill:#ffffff;fill-opacity:1" />
        <path
           d="m -7465.6793,6794.1745 c -36,-43 -35,-91 3,-130 38,-38 91,-40 126,-5 67,67 31,166 -61,166 -35,0 -47,-5 -68,-31 z"
           id="path27"
           style="fill:#ffffff;fill-opacity:1" />
        <path
           d="m -4015.6793,6779.1745 c -28,-27 -37,-53 -38,-103 0,-77 44,-147 116,-183 l 29,-15 -39,-19 c -38,-19 -67,-65 -50,-81 4,-4 31,-10 59,-13 38,-5 47,-8 32,-14 -11,-4 -35,-15 -53,-23 -31,-16 -33,-19 -30,-62 l 3,-46 59,1 c 50,1 62,5 77,25 18,24 19,24 19,3 0,-60 70,-18 90,54 l 11,41 36,-24 c 83,-57 166,-53 223,11 36,42 36,73 0,91 -14,7 -64,24 -113,38 l -87,26 15,29 c 20,39 19,43 -11,79 -33,39 -75,42 -108,6 -13,-14 -26,-25 -29,-25 -3,0 -27,30 -53,68 -107,152 -126,168 -158,136 z"
           id="path28"
           style="fill:#ffffff;fill-opacity:1" />
        <path
           d="m -3186.6793,6730.1745 c -47,-46 -27,-125 38,-148 24,-9 83,16 96,41 48,90 -64,178 -134,107 z"
           id="path29"
           style="fill:#ffffff;fill-opacity:1" />
        <path
           d="m -5594.6793,6666.1745 c -33,-25 -318,-298 -700,-671 -165,-160 -215,-187 -334,-177 -126,10 -196,84 -206,221 -5,75 -22,106 -77,144 -24,16 -47,22 -87,22 h -55 l -171,-167 c -95,-91 -179,-180 -187,-195 -13,-26 -13,-33 1,-56 40,-72 110,-67 198,13 64,60 79,65 105,36 28,-31 31,-91 9,-136 -12,-22 -120,-134 -256,-264 -654,-627 -857,-827 -857,-842 0,-34 377,-308 403,-293 7,4 103,95 214,202 l 202,194 -5,77 c -5,67 -2,81 18,115 33,56 68,79 131,84 91,7 164,-52 174,-142 8,-71 -10,-106 -105,-196 -219,-210 -432,-425 -432,-436 0,-13 162,-80 275,-113 182,-53 467,-111 543,-111 24,0 205,167 580,534 156,154 176,170 207,170 65,0 119,-67 107,-132 -4,-18 -69,-88 -196,-211 -105,-102 -231,-226 -281,-276 -89,-89 -90,-90 -60,-93 101,-12 558,79 715,142 19,8 78,31 130,52 213,83 444,223 671,406 128,102 429,390 429,409 0,7 -19,30 -42,51 -30,27 -50,38 -67,36 -24,-3 -25,-1 -22,52 1,30 4,56 5,57 1,1 26,-13 54,-33 l 53,-35 24,53 c 29,61 31,108 10,168 -8,24 -13,45 -10,48 3,3 22,0 44,-6 64,-20 150,-15 206,12 92,42 164,147 165,238 0,39 -5,50 -26,67 -37,29 -99,27 -274,-9 -80,-16 -149,-30 -154,-30 -4,0 5,15 22,34 17,19 33,48 37,64 14,64 -32,155 -96,187 -42,22 -117,19 -164,-8 -70,-39 -105,-143 -71,-209 9,-16 10,-28 5,-28 -6,0 -63,32 -127,71 -189,116 -244,132 -299,85 -26,-23 -28,-29 -28,-103 1,-60 6,-87 22,-119 54,-101 133,-154 245,-162 37,-2 68,-7 68,-10 0,-2 -13,-20 -30,-38 -50,-58 -65,-173 -27,-212 13,-13 25,-7 100,52 47,36 93,66 104,66 23,0 43,-18 43,-40 0,-18 -291,-300 -309,-300 -6,0 -11,12 -11,28 0,47 -19,99 -48,130 -35,37 -99,57 -138,42 -15,-6 -121,-105 -236,-220 -136,-136 -218,-210 -231,-211 -45,-3 -63,3 -89,29 -21,20 -28,35 -28,65 0,45 -26,17 288,317 106,102 202,199 213,216 11,18 19,49 19,73 0,113 -89,192 -196,176 -42,-6 -61,-21 -267,-218 -122,-117 -298,-287 -392,-378 -361,-351 -371,-358 -481,-359 -151,0 -263,131 -240,281 12,73 37,106 189,248 381,354 1158,1093 1253,1192 88,93 103,156 54,237 -47,76 -152,96 -223,43 z m -1157,-1116 c 19,-23 3,-51 -61,-108 -66,-57 -84,-63 -106,-30 -14,21 -12,26 48,88 64,66 94,80 119,50 z"
           id="path30"
           style="fill:#ffffff;fill-opacity:1" />
        <path
           d="m -6556.6793,6520.1745 c -17,-16 -25,-35 -25,-60 0,-19 -3,-35 -7,-35 -3,0 -33,13 -67,29 -106,49 -133,55 -163,36 -22,-15 -25,-22 -20,-58 3,-22 14,-52 25,-66 26,-36 90,-71 130,-71 35,0 38,-6 17,-34 -17,-22 -20,-72 -5,-81 5,-3 31,10 56,29 26,20 53,36 60,36 27,0 13,-39 -26,-73 -22,-19 -40,-43 -40,-53 0,-18 55,-104 66,-104 2,0 22,16 44,36 32,29 40,43 40,70 0,38 2,39 29,22 32,-20 51,5 51,69 v 55 l 40,-7 c 79,-13 147,26 176,100 21,56 8,85 -39,85 -30,0 -147,-22 -188,-35 -17,-6 -18,-2 -13,39 6,39 3,48 -19,70 -35,35 -88,35 -122,1 z"
           id="path31"
           style="fill:#ffffff;fill-opacity:1" />
        <path
           d="m -4318.6793,6300.1745 c -101,-43 -94,-204 10,-244 33,-12 42,-12 82,3 60,23 89,65 89,128 0,54 -26,91 -81,114 -40,17 -59,17 -100,-1 z"
           id="path32"
           style="fill:#ffffff;fill-opacity:1" />
        <path
           d="m -5344.6793,6254.1745 c -27,-16 -50,-68 -42,-98 10,-42 44,-71 82,-71 45,0 69,14 88,50 22,43 19,68 -14,101 -31,31 -79,38 -114,18 z"
           id="path33"
           style="fill:#ffffff;fill-opacity:1" />
        <path
           d="m -3971.6793,5999.1745 c -24,-63 30,-154 101,-169 28,-6 29,-8 14,-25 -21,-23 -25,-76 -6,-72 8,2 29,6 45,9 l 31,6 -29,-31 c -31,-34 -30,-47 10,-109 l 14,-23 35,23 c 23,14 35,30 35,45 0,25 15,30 24,7 8,-21 33,-19 46,4 5,11 10,36 10,56 0,32 2,35 19,25 29,-15 108,-12 141,5 41,21 73,70 66,100 -6,25 -8,25 -111,25 -95,0 -123,7 -95,25 6,3 10,21 10,40 0,43 -41,79 -80,70 -32,-8 -60,-41 -60,-72 0,-23 -4,-22 -79,31 -90,64 -126,71 -141,30 z"
           id="path34"
           style="fill:#ffffff;fill-opacity:1" />
        <path
           d="m -5649.6793,5975.1745 c -26,-26 -32,-39 -32,-75 0,-65 33,-100 95,-100 40,0 51,5 76,33 60,67 27,159 -62,169 -41,5 -48,2 -77,-27 z"
           id="path35"
           style="fill:#ffffff;fill-opacity:1" />
        <path
           d="m -5817.6793,5811.1745 c -46,-20 -74,-62 -74,-108 0,-32 7,-47 34,-74 49,-49 95,-48 147,5 33,32 39,45 39,80 0,77 -77,128 -146,97 z"
           id="path36"
           style="fill:#ffffff;fill-opacity:1" />
        <path
           d="m -6057.6793,5581.1745 c -27,-27 -34,-42 -34,-74 0,-45 28,-88 68,-103 56,-21 142,41 142,102 0,102 -105,146 -176,75 z"
           id="path37"
           style="fill:#ffffff;fill-opacity:1" />
        <path
           d="m -6344.6793,5314.1745 c -23,-14 -47,-62 -47,-97 0,-35 37,-78 74,-88 58,-14 126,45 126,109 0,44 -49,87 -97,87 -21,0 -46,-5 -56,-11 z"
           id="path38"
           style="fill:#ffffff;fill-opacity:1" />
        <path
           d="m -6690.6793,4979.1745 c -26,-21 -31,-33 -31,-67 1,-45 13,-67 47,-85 37,-20 77,-14 105,16 36,37 43,73 24,111 -30,57 -94,68 -145,25 z"
           id="path39"
           style="fill:#ffffff;fill-opacity:1" />
      </g>
    </g>
  </g>
</svg>
